PathFileType	4	(X/Y/Z)	C:\Users\italobelli\Desktop\GitHub\PTbot_officialCBL\Personal_Results\FLX21_noisy2.trc
DataRate	CameraRate	NumFrames	NumMarkers	Units	OrigDataRate	OrigDataStartFrame	OrigNumFrames
107.000000	107.000000	21	9	m	107.000000	282	750
Frame#	Time		gu		centelbow		EpL		centpxt8		centijc7		ij		ts		aa		ai
			X1	Y1	Z1	X2	Y2	Z2	X3	Y3	Z3	X4	Y4	Z4	X5	Y5	Z5	X6	Y6	Z6	X7	Y7	Z7	X8	Y8	Z8	X9	Y9	Z9

282	2.6262	-0.09531	0.059384	0.099185	0.010091	0.27759	0.17759	-0.01788	0.28931	0.16632	-0.046816	-0.15316	-0.008669	-0.046816	0.031938	-0.008669	0	0	0	-0.13282	-0.025572	0.06216	-0.12629	0.082965	0.11098	-0.094626	-0.06654	0.16102
283	2.6355	-0.095263	0.059392	0.099153	0.010313	0.27753	0.17794	-0.017656	0.28927	0.16665	-0.046816	-0.15316	-0.008669	-0.046816	0.031938	-0.008669	0	0	0	-0.13283	-0.025515	0.062133	-0.12628	0.083015	0.11095	-0.094652	-0.066495	0.161
284	2.6449	-0.095214	0.059402	0.099123	0.010555	0.27745	0.17831	-0.01741	0.28922	0.167	-0.046816	-0.15316	-0.008669	-0.046816	0.031938	-0.008669	0	0	0	-0.13286	-0.025455	0.062106	-0.12627	0.083066	0.11093	-0.094688	-0.066452	0.16097
285	2.6542	-0.095163	0.059412	0.099097	0.010816	0.27737	0.17869	-0.017144	0.28916	0.16736	-0.046816	-0.15316	-0.008669	-0.046816	0.031938	-0.008669	0	0	0	-0.13289	-0.025393	0.062077	-0.12626	0.083119	0.11091	-0.094734	-0.066412	0.16094
286	2.6636	-0.09511	0.059424	0.099074	0.011098	0.27727	0.17908	-0.016856	0.28909	0.16773	-0.046816	-0.15316	-0.008669	-0.046816	0.031938	-0.008669	0	0	0	-0.13292	-0.025328	0.062047	-0.12625	0.083172	0.11089	-0.094789	-0.066376	0.1609
287	2.6729	-0.095055	0.059435	0.099055	0.011398	0.27716	0.17949	-0.016548	0.28901	0.16811	-0.046816	-0.15316	-0.008669	-0.046816	0.031938	-0.008669	0	0	0	-0.13296	-0.02526	0.062016	-0.12623	0.083226	0.11088	-0.094854	-0.066342	0.16086
288	2.6822	-0.094997	0.059448	0.099038	0.011718	0.27704	0.1799	-0.016219	0.28892	0.1685	-0.046816	-0.15316	-0.008669	-0.046816	0.031938	-0.008669	0	0	0	-0.13301	-0.02519	0.061985	-0.12621	0.083281	0.11087	-0.094927	-0.066312	0.16082
289	2.6916	-0.094938	0.059461	0.099025	0.012057	0.2769	0.18033	-0.01587	0.28882	0.1689	-0.046816	-0.15316	-0.008669	-0.046816	0.031938	-0.008669	0	0	0	-0.13306	-0.025117	0.061952	-0.12619	0.083337	0.11086	-0.095009	-0.066285	0.16078
290	2.7009	-0.094876	0.059475	0.099015	0.012414	0.27676	0.18076	-0.015501	0.28872	0.16931	-0.046816	-0.15316	-0.008669	-0.046816	0.031938	-0.008669	0	0	0	-0.13311	-0.025041	0.061919	-0.12616	0.083393	0.11085	-0.0951	-0.066261	0.16074
291	2.7103	-0.094813	0.059489	0.099008	0.01279	0.2766	0.18121	-0.015111	0.2886	0.16974	-0.046816	-0.15316	-0.008669	-0.046816	0.031938	-0.008669	0	0	0	-0.13317	-0.024964	0.061886	-0.12614	0.08345	0.11085	-0.0952	-0.06624	0.16069
292	2.7196	-0.094748	0.059504	0.099005	0.013184	0.27643	0.18166	-0.014702	0.28848	0.17017	-0.046816	-0.15316	-0.008669	-0.046816	0.031938	-0.008669	0	0	0	-0.13323	-0.024884	0.061851	-0.12611	0.083507	0.11085	-0.095307	-0.066223	0.16064
293	2.729	-0.094681	0.05952	0.099005	0.013596	0.27625	0.18212	-0.014274	0.28835	0.17061	-0.046816	-0.15316	-0.008669	-0.046816	0.031938	-0.008669	0	0	0	-0.1333	-0.024801	0.061816	-0.12607	0.083565	0.11085	-0.095423	-0.066209	0.16059
294	2.7383	-0.094613	0.059536	0.099008	0.014025	0.27606	0.18259	-0.013826	0.2882	0.17106	-0.046816	-0.15316	-0.008669	-0.046816	0.031938	-0.008669	0	0	0	-0.13338	-0.024717	0.061781	-0.12604	0.083622	0.11085	-0.095546	-0.066199	0.16054
295	2.7477	-0.094543	0.059552	0.099014	0.014472	0.27585	0.18306	-0.013359	0.28806	0.17151	-0.046816	-0.15316	-0.008669	-0.046816	0.031938	-0.008669	0	0	0	-0.13345	-0.024631	0.061745	-0.126	0.08368	0.11086	-0.095678	-0.066191	0.16048
296	2.757	-0.094471	0.059569	0.099024	0.014936	0.27564	0.18354	-0.012873	0.2879	0.17198	-0.046816	-0.15316	-0.008669	-0.046816	0.031938	-0.008669	0	0	0	-0.13353	-0.024543	0.061709	-0.12596	0.083738	0.11087	-0.095816	-0.066188	0.16043
297	2.7664	-0.094398	0.059586	0.099037	0.015417	0.27541	0.18403	-0.012368	0.28773	0.17245	-0.046816	-0.15316	-0.008669	-0.046816	0.031938	-0.008669	0	0	0	-0.13362	-0.024452	0.061673	-0.12591	0.083796	0.11089	-0.095962	-0.066187	0.16037
298	2.7757	-0.094323	0.059604	0.099054	0.015914	0.27518	0.18452	-0.011845	0.28756	0.17293	-0.046816	-0.15316	-0.008669	-0.046816	0.031938	-0.008669	0	0	0	-0.13371	-0.02436	0.061636	-0.12586	0.083854	0.1109	-0.096114	-0.066191	0.16031
299	2.785	-0.094247	0.059621	0.099073	0.016427	0.27493	0.18502	-0.011304	0.28737	0.17341	-0.046816	-0.15316	-0.008669	-0.046816	0.031938	-0.008669	0	0	0	-0.1338	-0.024267	0.061599	-0.12581	0.083912	0.11092	-0.096273	-0.066198	0.16025
300	2.7944	-0.09417	0.059639	0.099096	0.016957	0.27467	0.18552	-0.010744	0.28718	0.1739	-0.046816	-0.15316	-0.008669	-0.046816	0.031938	-0.008669	0	0	0	-0.13389	-0.024171	0.061562	-0.12576	0.083969	0.11094	-0.096439	-0.066208	0.16019
301	2.8037	-0.094092	0.059658	0.099123	0.017502	0.2744	0.18602	-0.010167	0.28698	0.1744	-0.046816	-0.15316	-0.008669	-0.046816	0.031938	-0.008669	0	0	0	-0.13399	-0.024074	0.061526	-0.1257	0.084026	0.11097	-0.096612	-0.066222	0.16012
302	2.8131	-0.094012	0.059676	0.099153	0.018063	0.27412	0.18653	-0.009572	0.28677	0.1749	-0.046816	-0.15316	-0.008669	-0.046816	0.031938	-0.008669	0	0	0	-0.1341	-0.023976	0.061489	-0.12564	0.084083	0.111	-0.09679	-0.06624	0.16006
